HIERARCHY
ROOT Hips
{
  OFFSET 18.6338 99.6127 58.1274
  CHANNELS 6 Xposition Yposition Zposition Zrotation Xrotation Yrotation
  JOINT ToSpine
  {
    OFFSET -2.69724 7.43032 -0.144315
    CHANNELS 3 Zrotation Xrotation Yrotation
    JOINT Spine
    {
      OFFSET -0.0310711 10.7595 1.96963
      CHANNELS 3 Zrotation Xrotation Yrotation
      JOINT Spine1
      {
        OFFSET 13.1342 3.43533 0.764692
        CHANNELS 3 Zrotation Xrotation Yrotation
        JOINT Neck
        {
          OFFSET 29.8703 7.82586 -0.130764
          CHANNELS 3 Zrotation Xrotation Yrotation
          JOINT Head
          {
            OFFSET 9.52751 0.295786 -0.907742
            CHANNELS 3 Zrotation Xrotation Yrotation
            End Site
            {
              OFFSET 16.4037 0.713936 2.7358
            }
          }
        }
        JOINT LeftShoulder
        {
          OFFSET 27.5574 4.95586 2.47156
          CHANNELS 3 Zrotation Xrotation Yrotation
          JOINT LeftArm
          {
            OFFSET 1.20734 -0.998971 20.1238
            CHANNELS 3 Zrotation Xrotation Yrotation
            JOINT LeftForeArm
            {
              OFFSET 26.8049 -0.0536703 -0.155908
              CHANNELS 3 Zrotation Xrotation Yrotation
              JOINT LeftHand
              {
                OFFSET 26.6817 0 0.320147
                CHANNELS 3 Zrotation Xrotation Yrotation
                End Site
                {
                  OFFSET 18.6119 0 0.382219
                }
              }
            }
          }
        }
        JOINT RightShoulder
        {
          OFFSET 27.5927 4.71444 -2.65209
          CHANNELS 3 Zrotation Xrotation Yrotation
          JOINT RightArm
          {
            OFFSET 2.83739 -1.17114 -18.7564
            CHANNELS 3 Zrotation Xrotation Yrotation
            JOINT RightForeArm
            {
              OFFSET 28.839 -0.0548439 1.22491
              CHANNELS 3 Zrotation Xrotation Yrotation
              JOINT RightHand
              {
                OFFSET 26.5114 0 -0.101894
                CHANNELS 3 Zrotation Xrotation Yrotation
                End Site
                {
                  OFFSET 18.2168 0 0
                }
              }
            }
          }
        }
      }
    }
  }
  JOINT LeftUpLeg
  {
    OFFSET -4.76168 -1.9167 -10.2353
    CHANNELS 3 Zrotation Xrotation Yrotation
    JOINT LeftLeg
    {
      OFFSET 2.55951 -42.0585 -8.02213
      CHANNELS 3 Zrotation Xrotation Yrotation
      JOINT LeftFoot
      {
        OFFSET 3.16357 -42.5282 -3.95426
        CHANNELS 3 Zrotation Xrotation Yrotation
        JOINT LeftToeBase
        {
          OFFSET 0.346054 -6.02161 12.8035
          CHANNELS 3 Zrotation Xrotation Yrotation
          End Site
          {
            OFFSET 0.134235 -1.35082 5.13018
          }
        }
      }
    }
  }
  JOINT RightUpLeg
  {
    OFFSET -4.94151 -1.41743 10.6446
    CHANNELS 3 Zrotation Xrotation Yrotation
    JOINT RightLeg
    {
      OFFSET -2.56294 -42.0364 -7.94377
      CHANNELS 3 Zrotation Xrotation Yrotation
      JOINT RightFoot
      {
        OFFSET -3.0952 -42.555 -4.02241
        CHANNELS 3 Zrotation Xrotation Yrotation
        JOINT RightToeBase
        {
          OFFSET -0.0828122 -6.13587 12.8035
          CHANNELS 3 Zrotation Xrotation Yrotation
          End Site
          {
            OFFSET -0.131328 -1.35082 5.13018
          }
        }
      }
    }
  }
}
MOTION
Frames:	13
Frame Time:	0.0333333
16.3525 92.6278 50.3484 83.5433 -39.0304 10.5496 -70.1915 0 88.8779 99.9605 72.8121 -22.6803 -3.30404 22.6851 4.35265 -118.758 24.632 147.282 -168.843 72.9241 -155.347 1.45933 -3.91708 -15.7623 -91.8957 37.3997 -103.571 16.2774 -3.16 -99.5655 -0.221624 0.0126638 2.65279 -1.96111 6.0693 46.4287 -95.4688 -31.0722 38.9732 -11.223 5.92798 62.259 0.774403 -0.0191372 -1.60456 -42.8476 0.230921 79.576 -5.59974 56.1549 -10.8635 8.1819 -12.059 -1.23221 -0.441831 0.0428647 2.08913 -40.5281 6.38834 79.0047 3.06531 59.6982 -6.60647 -1.01623 -17.8291 1.5434 2.20337 -19.515 -10.5896 
15.3856 92.9975 51.362 87.9493 -38.6364 15.3954 -70.1915 0 88.8779 110.552 68.0227 -35.7732 -1.12997 19.1743 6.11797 -117.413 20.3947 148.248 -160.332 69.1594 -159.794 0.939931 -11.6234 -19.2646 -89.024 32.6519 -117.903 17.7996 -0.0645079 -90.2483 -2.13778 -0.0112234 3.16202 -2.2588 6.71413 47.3051 -94.8611 -29.7659 33.6421 -17.3606 8.48117 64.5676 0.916227 -0.0246882 -1.95913 -46.0565 2.93984 78.2052 -5.59682 56.5161 -10.1262 8.01518 -12.4765 -1.23382 -0.728744 1.04215 1.1735 -26.8881 3.78828 87.3224 2.69747 53.7398 -4.1636 0.863475 -17.2843 1.53525 2.19534 -20.3629 -20.7863 
15.0437 93.4476 52.1897 93.8207 -42.6556 20.6873 -70.1915 0 88.8779 117.598 64.1062 -43.5084 2.69061 17.8033 6.20397 -120.642 17.9977 151.87 -155.989 65.0761 -162.798 0.688581 -14.9704 -16.7385 -89.1338 29.4349 -131.555 15.3039 3.6882 -75.4736 -3.09332 -0.0511297 4.3491 -2.42586 7.85418 44.5968 -91.1591 -28.5279 35.8126 -18.8877 8.5021 66.4616 0.461201 -0.0155448 -1.58692 -50.364 8.31494 80.3291 -5.69377 56.3993 -10.8887 6.72345 -12.5769 -1.20896 -0.26224 -0.402196 2.24787 -14.0946 0.524934 87.3619 1.64819 40.1174 0.641041 5.31856 -15.8564 1.43549 2.10888 -22.5643 -17.119 
15.7401 94.5785 53.091 103.062 -46.8978 29.2884 -70.1915 0 88.8779 126.723 58.7589 -51.4759 3.7737 17.2686 5.83379 -121.36 16.103 157.588 -155.422 61.4623 -161.497 0.696338 -16.7018 -14.6077 -91.4612 24.8505 -141.828 10.3928 6.83858 -56.7041 -2.91909 -0.076804 5.76411 -2.47125 9.16581 40.7596 -87.1481 -25.3415 41.8153 -17.5624 7.64271 67.0105 0.123368 -0.00853587 -1.08057 -58.2034 15.1156 84.975 -5.3688 54.4002 -12.3449 4.31068 -13.7159 -1.22188 -0.523991 0.424613 1.57777 -5.95057 -0.535963 87.9846 2.37878 21.2589 8.44049 5.34606 -12.6056 1.03191 1.75995 -25.356 -22.3192 
16.6003 95.9415 54.3086 107.699 -47.0162 36.9231 -70.1915 0 88.8779 131.815 52.8246 -54.6397 4.08254 15.1108 8.24638 -120.975 15.4958 162.205 -155.787 59.6699 -159.287 0.794599 -19.2194 -11.4401 -93.6599 23.6883 -147.421 2.29644 2.66373 -38.5858 -1.61766 -0.0371343 6.54654 -2.42213 10.1217 37.7264 -83.9929 -19.2522 50.0198 -19.8342 8.77484 66.8674 0.158168 -0.0110907 -1.48834 -62.926 21.9792 86.9435 -5.2151 52.5322 -15.4678 2.01808 -13.1807 -1.16336 0.305785 -1.23732 1.36481 6.28806 -4.91628 90.2856 1.88694 13.0868 9.57246 2.75589 -9.67557 0.778835 1.10779 -25.5242 -30.5882 
17.259 97.2092 55.1718 107.016 -43.7488 41.1571 -70.1915 0 88.8779 134.582 48.4197 -54.581 7.12595 11.3732 11.2301 -122.169 15.6577 164.111 -155.453 59.1945 -158.41 0.888183 -21.2177 -9.97276 -102.198 33.9063 -149.098 0.310103 7.83174 -23.3127 -0.618868 0.00505692 4.07143 -2.24595 10.8441 34.4079 -84.6573 -13.6666 58.7282 -20.1872 9.7025 65.166 0.642564 -0.0278565 -2.53557 -63.4121 26.5523 83.4764 -5.11679 51.5115 -16.9015 0.181942 -11.5006 -1.01045 1.53602 -3.68923 0.979017 20.3031 -13.9125 97.6768 0.670077 12.4538 5.44104 2.25157 -3.69832 0.202674 1.96084 -22.4001 -24.0015 
18.015 98.4083 56.2688 106.807 -41.5273 45.512 -70.1915 0 88.8779 140.071 44.7556 -53.738 8.17317 9.38816 11.325 -120.9 15.9339 163.954 -154.369 59.6979 -157.69 0.720438 -22.8194 -11.2387 -105.722 38.8587 -150.895 -1.14753 10.9297 -15.0937 0.126051 0.00735851 1.34026 -2.16074 11.5652 32.2332 -84.4398 -9.34627 64.7705 -17.0719 9.93711 60.4354 0.925774 -0.0431337 -3.38827 -63.0409 31.5899 81.1736 -5.22372 51.4322 -18.3117 -3.57153 -9.66388 -0.693714 2.49756 -5.91862 1.73581 32.6301 -22.1637 105.204 -1.40306 13.3761 9.10286 2.48697 1.18155 -0.304142 1.84646 -22.4662 -22.926 
18.5266 99.3915 57.7505 107.725 -40.987 48.9184 -70.1915 0 88.8779 145.915 42.6013 -53.9371 7.37898 9.29182 10.2069 -118.144 16.6614 163.482 -155.186 60.9498 -154.976 0.551157 -23.837 -12.3387 -103.52 38.1545 -152.295 -1.09718 9.26026 -15.755 0.431315 0.00620353 0.249207 -2.23483 11.6454 32.7824 -78.6226 -4.77869 67.8616 -15.6993 10.7732 56.1487 1.73567 -0.0885214 -4.51047 -62.0951 36.4154 81.5374 -5.33245 52.6137 -16.8714 -5.9665 -6.50286 -0.170818 3.34938 -5.97468 -4.64382 43.4717 -26.7016 113.144 -3.17583 13.9287 16.0464 -1.33547 4.23308 0.0575764 0.621922 -27.2087 -35.2215 
18.9855 100.242 59.1865 109.511 -40.8088 50.1509 -70.1915 0 88.8779 149.825 41.8683 -55.9902 6.40755 10.5994 9.81751 -115.411 16.7575 162.248 -153.736 61.7898 -155.077 0.440427 -24.2685 -13.0739 -100.218 34.792 -153.143 0.337531 10.0505 -18.3812 0.11507 0.00760647 0.400394 -2.38821 11.5436 34.3482 -74.7868 -1.94924 66.8333 -22.4232 15.6036 56.7089 3.28587 -0.170718 -5.27592 -63.5769 36.7129 81.4112 -4.99254 53.2059 -12.4579 -8.06338 -2.69845 0.560317 4.46009 -6.06565 -13.2001 50.7181 -30.0398 119.158 -2.99488 12.6964 12.5579 -3.14209 2.47801 0.426281 0.991042 -24.0538 -37.3911 
19.6226 101.193 60.2004 112.041 -44.3536 51.8806 -70.1915 0 88.8779 151.488 43.8274 -56.1803 5.23804 13.0311 9.65854 -113.95 18.2365 164.19 -156.646 62.6259 -152.769 0.390182 -23.7542 -13.6867 -99.3074 32.57 -149.469 0.864775 8.80098 -21.0257 -0.128557 0.0105934 1.54427 -2.22361 11.2106 33.5092 -76.0767 -3.92239 68.1798 -22.1318 16.3396 55.1366 3.47145 -0.201647 -5.99989 -65.9588 34.9495 80.9518 -4.21434 52.6501 -7.14167 -9.10574 1.51356 1.34296 5.0203 -7.34962 -14.4289 50.2034 -32.3826 119.865 -2.09523 12.1331 12.1011 -3.55878 2.45575 0.494688 1.11713 -23.8714 -35.8913 
20.3861 102.249 60.8119 112.47 -53.2521 53.9251 -70.1915 0 88.8779 150.231 48.4881 -49.292 3.24072 14.8141 7.54374 -113.521 20.1814 170.313 -162.894 62.124 -147.065 0.390902 -21.8436 -14.6145 -99.2491 27.3911 -138.764 2.99243 7.04824 -27.853 -0.218886 0.014566 3.96157 -2.10502 10.979 32.8787 -82.0933 -8.12807 71.6806 -20.9793 15.2922 55.2463 2.24585 -0.118143 -4.97581 -64.101 34.0456 78.9023 -3.31294 51.9582 -2.24159 -6.3043 6.55098 1.57594 5.94734 -9.61576 -16.422 41.8612 -33.3027 114.612 -3.00689 13.7452 16.2576 -2.30752 1.9246 0.339643 0.882331 -24.6822 -36.9128 
20.9679 103.455 61.7078 110.538 -63.384 52.6894 -70.1915 0 88.8779 140.945 55.9709 -36.9735 4.53795 15.5146 6.86056 -114.207 20.9972 175.014 -164.887 61.0649 -146.672 0.317706 -19.1827 -17.3506 -101.224 19.3945 -125.238 4.71807 6.53245 -35.9716 -0.282624 0.0160175 5.52406 -2.09907 10.0537 34.7986 -85.5502 -9.20315 76.6776 -17.2749 11.5217 57.0032 0.49534 -0.0308515 -3.02276 -61.9771 31.9722 77.7294 -2.39885 49.1872 0.703499 -2.88841 10.5179 1.35057 6.58854 -12.4163 -12.8542 29.1689 -29.1456 117.586 -2.89386 18.1138 6.8458 0.17663 2.36546 -0.132437 1.76759 -21.2518 -35.637 
21.1479 104.997 62.9875 104.331 -71.0746 45.3857 -70.1915 0 88.8779 121.165 62.7399 -19.7611 6.56008 15.086 9.46395 -111.621 20.001 174.8 -161.181 60.231 -152.379 0.456677 -16.0587 -19.5603 -103.388 13.5234 -111.766 4.17734 4.5352 -42.7008 0.345275 0.0200148 4.7033 -2.04258 8.76432 37.4892 -88.8748 -9.45385 79.7764 -14.3758 8.44614 59.8522 -0.775839 -0.00317363 -1.14895 -62.2818 30.2908 80.8954 -1.278 42.7075 4.92411 -3.35325 10.8944 1.49692 5.4509 -9.06106 -12.9067 19.7713 -25.3625 108.604 -3.40814 17.2468 3.34966 -8.10396 13.639 1.1765 0.567153 -31.7594 -24.4269 
